<?xml version="1.0" encoding="utf-8"?>
<!-- Generator: Adobe Illustrator 20.1.0, SVG Export Plug-In . SVG Version: 6.00 Build 0)  -->
<svg version="1.1" id="Outline_Icons" xmlns="http://www.w3.org/2000/svg" xmlns:xlink="http://www.w3.org/1999/xlink" x="0px"
	 y="0px" width="512px" height="512px" viewBox="0 0 512 512" style="enable-background:new 0 0 512 512;" xml:space="preserve">
<style type="text/css">
	.st0{clip-path:url(#SVGID_2_);}
</style>
<g>
	<defs>
		<rect id="SVGID_1_" x="126" y="153" width="206" height="206"/>
	</defs>
	<clipPath id="SVGID_2_">
		<use xlink:href="#SVGID_1_"  style="overflow:visible;"/>
	</clipPath>
	<path class="st0" d="M229,311.8c0,10.1-9.2,21.5-21.5,21.5c-11.8,0-21.5-9.6-21.5-21.5c0-11.8,9.6-21.5,21.5-21.5H229v4.3V311.8z
		 M248.5,188.1c-10.7-7.1-11-17.5-11-17.9v-4.3c0-2.4-1.9-4.3-4.3-4.3c-2.4,0-4.3,1.9-4.3,4.3v115.9h-21.5c-16.6,0-30,13.5-30,30
		c0,16.6,13.5,30,30,30c16,0,30-14,30-30v-17.2V286v-96.2c1.7,1.9,3.7,3.7,6.2,5.4c35.7,23.8,23.4,55.7,18.2,69.4l-6,15.6
		c-0.8,2.2,0.3,4.7,2.5,5.5c0.5,0.2,1,0.3,1.5,0.3c1.7,0,3.4-1,4-2.8l6-15.6C274.9,254.8,290,215.7,248.5,188.1z"/>
</g>
</svg>
