<?xml version="1.0" encoding="utf-8"?>
<!-- Generator: Adobe Illustrator 20.1.0, SVG Export Plug-In . SVG Version: 6.00 Build 0)  -->
<svg version="1.1" id="Outline_Icons" xmlns="http://www.w3.org/2000/svg" xmlns:xlink="http://www.w3.org/1999/xlink" x="0px"
	 y="0px" width="512px" height="512px" viewBox="0 0 512 512" style="enable-background:new 0 0 512 512;" xml:space="preserve">
<style type="text/css">
	.st0{clip-path:url(#SVGID_2_);}
</style>
<g>
	<defs>
		<rect id="SVGID_1_" x="163.5" y="163.5" width="185" height="185"/>
	</defs>
	<clipPath id="SVGID_2_">
		<use xlink:href="#SVGID_1_"  style="overflow:visible;"/>
	</clipPath>
	<g class="st0">
		<path d="M298.4,333.1h-84.8c-2.1,0-3.9-1.7-3.9-3.9V245l-16.8,14c-1.5,1.3-3.8,1.2-5.2-0.2l-23.1-23.1c-1.5-1.5-1.5-3.9,0-5.5
			l31.1-31.1c7.9-7.9,18.8-12.4,30-12.4h60.6c11.3,0,22,4.4,30,12.4l31.1,31.1c0.7,0.7,1.1,1.7,1.1,2.7s-0.4,2-1.1,2.7l-23.1,23.1
			c-1.4,1.4-3.7,1.5-5.2,0.2l-16.8-14v84.3C302.2,331.4,300.5,333.1,298.4,333.1z M217.5,325.4h77.1v-88.6c0-1.5,0.9-2.9,2.2-3.5
			c1.4-0.6,2.9-0.4,4.1,0.5l20.4,17l17.9-17.9l-28.4-28.4c-6.6-6.6-15.3-10.2-24.5-10.2h-3.6c-1.9,13.1-13.1,23.1-26.7,23.1
			c-13.6,0-24.8-10.1-26.7-23.1h-3.6c-9.1,0-18.1,3.7-24.5,10.2l-28.4,28.4l17.9,17.9l20.4-17c1.2-1,2.8-1.2,4.1-0.5
			c1.4,0.6,2.2,2,2.2,3.5V325.4z M237.1,194.3c1.8,8.8,9.6,15.4,18.9,15.4c9.3,0,17.1-6.6,18.9-15.4H237.1z"/>
	</g>
</g>
</svg>
