<?xml version="1.0" encoding="utf-8"?>
<!-- Generator: Adobe Illustrator 20.1.0, SVG Export Plug-In . SVG Version: 6.00 Build 0)  -->
<svg version="1.1" id="Outline_Icons" xmlns="http://www.w3.org/2000/svg" xmlns:xlink="http://www.w3.org/1999/xlink" x="0px"
	 y="0px" width="512px" height="512px" viewBox="0 0 512 512" style="enable-background:new 0 0 512 512;" xml:space="preserve">
<style type="text/css">
	.st0{opacity:0.8;}
	.st1{clip-path:url(#SVGID_2_);}
</style>
<g class="st0">
	<defs>
		<rect id="SVGID_1_" x="204.5" y="204.5" class="st0" width="103" height="103"/>
	</defs>
	<clipPath id="SVGID_2_">
		<use xlink:href="#SVGID_1_"  style="overflow:visible;"/>
	</clipPath>
	<path class="st1" d="M288.2,303.2h-64.4c-8.3,0-15-6.7-15-15v-45.1h24.9c-2.2,3.8-3.5,8.2-3.5,12.9c0,14.2,11.5,25.8,25.8,25.8
		c14.2,0,25.8-11.5,25.8-25.8c0-4.7-1.3-9.1-3.5-12.9h24.9v45.1C303.2,296.5,296.5,303.2,288.2,303.2z M213.1,213.3v25.5h-4.3v-15
		C208.8,219.7,210.4,216,213.1,213.3z M226,208.8h4.3v30H226V208.8z M217.4,210.3c1.3-0.6,2.8-1.1,4.3-1.3v29.8h-4.3V210.3z
		 M256,234.5c11.8,0,21.5,9.6,21.5,21.5s-9.6,21.5-21.5,21.5s-21.5-9.6-21.5-21.5S244.2,234.5,256,234.5z M303.2,223.8v15h-28.1
		c-4.7-5.3-11.5-8.6-19.1-8.6c-7.6,0-14.4,3.3-19.1,8.6h-2.3v-30h53.6C296.5,208.8,303.2,215.5,303.2,223.8z M288.2,204.5h-64.4
		c-10.6,0-19.3,8.7-19.3,19.3v64.4c0,10.7,8.7,19.3,19.3,19.3h64.4c10.6,0,19.3-8.7,19.3-19.3v-64.4
		C307.5,213.2,298.8,204.5,288.2,204.5z"/>
	<path class="st1" d="M286,221.7h8.6v8.6H286V221.7z M283.9,234.5h12.9c1.2,0,2.1-1,2.1-2.1v-12.9c0-1.2-1-2.1-2.1-2.1h-12.9
		c-1.2,0-2.1,1-2.1,2.1v12.9C281.8,233.6,282.7,234.5,283.9,234.5z"/>
</g>
</svg>
