<?xml version="1.0" encoding="utf-8"?>
<!-- Generator: Adobe Illustrator 20.1.0, SVG Export Plug-In . SVG Version: 6.00 Build 0)  -->
<svg version="1.1" id="Outline_Icons" xmlns="http://www.w3.org/2000/svg" xmlns:xlink="http://www.w3.org/1999/xlink" x="0px"
	 y="0px" width="512px" height="512px" viewBox="0 0 512 512" style="enable-background:new 0 0 512 512;" xml:space="preserve">
<style type="text/css">
	.st0{opacity:0.8;}
	.st1{clip-path:url(#SVGID_2_);}
</style>
<g class="st0">
	<defs>
		<rect id="SVGID_1_" x="199.5" y="199.5" class="st0" width="113" height="113"/>
	</defs>
	<clipPath id="SVGID_2_">
		<use xlink:href="#SVGID_1_"  style="overflow:visible;"/>
	</clipPath>
	<path class="st1" d="M289,302.7c-7.7,3.4-15.2,5.2-22.3,5.2c-8.4,0-16.1-2.5-21.5-7.1c-5.1-4.4-8-10.2-8-16.5v-40
		c0-1.3-1.1-2.4-2.4-2.4H223v-9.3c4.3-1.4,9.8-3.3,12.8-5.9c3.3-2.8,5.9-6.2,7.9-10c1.7-3.4,3-7.6,3.7-12.5h13.3v21.2
		c0,1.3,1.1,2.4,2.4,2.4h21.2v14.1h-21.2c-1.3,0-2.4,1.1-2.4,2.4v26c0,18.3,9.5,21,15.2,21c4.8,0,9.5-1.9,13.1-3.7V302.7z
		 M292.4,281.3c-0.8-0.4-1.7-0.4-2.4,0.1c-4.9,3.2-10.1,5.1-14.1,5.1c-6.9,0-10.5-5.5-10.5-16.3v-23.6h21.2c1.3,0,2.4-1.1,2.4-2.4
		v-18.8c0-1.3-1-2.4-2.3-2.4h-21.2v-21.2c0-1.3-1.1-2.4-2.4-2.4h-17.7c-1.2,0-2.2,0.9-2.3,2.1c-0.7,5.3-1.9,9.7-3.6,13
		c-1.7,3.3-3.9,6.2-6.7,8.6c-2.6,2.2-8.4,4.1-12.3,5.3l-0.5,0.2c-1,0.3-1.6,1.2-1.6,2.2v13.3c0,1.3,1.1,2.4,2.4,2.4h11.8v37.6
		c0,7.7,3.4,14.9,9.6,20.1c6.3,5.3,15,8.3,24.5,8.3c8.3,0,16.9-2.1,25.7-6.2c0.8-0.4,1.4-1.2,1.4-2.1v-20.9
		C293.7,282.5,293.2,281.7,292.4,281.3z"/>
</g>
</svg>
