<?xml version="1.0" encoding="utf-8"?>
<!-- Generator: Adobe Illustrator 20.1.0, SVG Export Plug-In . SVG Version: 6.00 Build 0)  -->
<svg version="1.1" id="Outline_Icons" xmlns="http://www.w3.org/2000/svg" xmlns:xlink="http://www.w3.org/1999/xlink" x="0px"
	 y="0px" width="512px" height="512px" viewBox="0 0 512 512" style="enable-background:new 0 0 512 512;" xml:space="preserve">
<style type="text/css">
	.st0{opacity:0.8;}
</style>
<path class="st0" d="M311.5,222.6c-0.7-0.8-1.8-1.1-2.8-0.6c-1.7,0.7-3.1,1.1-4.5,1.1c1.5-1.8,2.2-3.8,3-6.4l0.4-1.3
	c0.3-0.9,0-2-0.8-2.6c-0.8-0.6-1.9-0.7-2.7-0.2c-3.7,2.2-7.6,3.8-11.8,4.7c-4.5-4.2-10.5-6.6-16.6-6.6c-13.3,0-24.1,10.8-24.1,24.1
	c0,0.8,0,1.6,0.1,2.3c-15.6-1.6-30.1-9.4-40.1-21.6c-0.5-0.6-1.3-0.9-2-0.9c-0.8,0.1-1.5,0.5-1.9,1.2c-2.1,3.7-3.3,7.9-3.3,12.1
	c0,5,1.5,9.8,4.3,13.7c-0.3-0.1-0.6-0.3-0.9-0.5c-0.7-0.4-1.6-0.3-2.4,0.2c-0.7,0.4-1.2,1.4-1.2,2.2c0,7.8,3.8,14.9,9.7,19.3
	c-0.6,0.1-1.1,0.3-1.5,0.8c-0.6,0.6-0.7,1.5-0.5,2.3c2.5,7.8,8.6,13.6,16.2,15.8c-7.6,4.4-16.5,6.2-25.5,5.2
	c-1.1-0.1-2.2,0.5-2.5,1.6c-0.4,1.1,0,2.2,1,2.8c10.4,6.6,22.3,10.1,34.6,10.1c40.2,0,64.2-32.6,64.2-64.2c0-0.5,0-1.1,0-1.6
	c0.5-0.4,1.1-0.8,1.7-1.1c3.7-2.5,7.6-5.2,10.1-9C312.2,224.6,312.2,223.4,311.5,222.6z M298.8,230.5c-1,0.6-1.9,1.3-2.8,1.9
	c-0.7,0.5-1,1.2-1,2c0,0.9,0.1,1.8,0.1,2.7c0,29.2-22.2,59.4-59.4,59.4c-8.2,0-16.2-1.7-23.6-4.9c8.7-0.8,16.9-4.1,23.9-9.6
	c0.8-0.6,1.1-1.7,0.8-2.6c-0.3-1-1.2-1.6-2.2-1.6c-7-0.1-13.2-4-16.5-9.9c2.2,0,4.5-0.3,6.6-0.8c1.1-0.3,1.8-1.3,1.8-2.4
	c0-1.1-0.8-2-1.9-2.3c-7.8-1.6-13.7-7.7-15.2-15.4c2.3,0.8,4.6,1.2,7,1.3c1.2,0.1,2-0.6,2.4-1.7s-0.1-2.1-0.9-2.7
	c-5.4-3.6-8.6-9.6-8.6-16.1c0-2.3,0.4-4.5,1.2-6.6c11.4,12.4,27.2,19.9,44.1,20.7c0.8,0,1.5-0.3,2-0.9c0.5-0.6,0.7-1.3,0.5-2.1
	c-0.3-1.4-0.5-2.9-0.5-4.4c0-10.7,8.7-19.3,19.3-19.3c5.3,0,10.5,2.2,14.1,6.1c0.6,0.6,1.4,0.9,2.2,0.7c3.1-0.6,6.1-1.5,9-2.7
	c-0.6,1-1.5,1.7-3.2,2.7c-0.8,0.4-1.2,1.3-1.2,2.2c0,0.9,0.5,1.7,1.3,2c1.6,0.8,3.1,1.3,4.7,1.4
	C301.4,228.7,300.1,229.6,298.8,230.5z"/>
</svg>
