<?xml version="1.0" encoding="utf-8"?>
<!-- Generator: Adobe Illustrator 20.1.0, SVG Export Plug-In . SVG Version: 6.00 Build 0)  -->
<svg version="1.1" id="Outline_Icons" xmlns="http://www.w3.org/2000/svg" xmlns:xlink="http://www.w3.org/1999/xlink" x="0px"
	 y="0px" width="512px" height="512px" viewBox="0 0 512 512" style="enable-background:new 0 0 512 512;" xml:space="preserve">
<style type="text/css">
	.st0{opacity:0.8;}
	.st1{clip-path:url(#SVGID_2_);}
</style>
<g class="st0">
	<defs>
		<rect id="SVGID_1_" x="204.5" y="204.5" class="st0" width="103" height="103"/>
	</defs>
	<clipPath id="SVGID_2_">
		<use xlink:href="#SVGID_1_"  style="overflow:visible;"/>
	</clipPath>
	<path class="st1" d="M281.3,251.7h-14.6c-1.2,0-2.1,1-2.1,2.1v49.4h-17.2v-49.4c0-1.2-1-2.1-2.1-2.1h-10.7v-12.9h10.7
		c1.2,0,2.1-1,2.1-2.1v-9.2c0-6.9,2.3-18.5,17.9-18.5l16.4,0.1v12.6h-10.7c-3,0-6.5,1.8-6.5,6.9v8.2c0,1.2,1,2.1,2.1,2.1h15.9
		L281.3,251.7z M286.6,235.2c-0.4-0.5-1-0.7-1.6-0.7h-16.2v-6c0-1.2,0.2-2.6,2.2-2.6h12.8c1.2,0,2.1-1,2.1-2.1v-16.9
		c0-1.2-1-2.1-2.1-2.1l-18.6-0.1c-20.6,0-22.2,17.5-22.2,22.8v7.1h-10.7c-1.2,0-2.1,1-2.1,2.1v17.2c0,1.2,1,2.1,2.1,2.1h10.7v49.4
		c0,1.2,1,2.1,2.1,2.1h21.5c1.2,0,2.1-1,2.1-2.1V256h14.4c1.1,0,2-0.8,2.1-1.9l1.8-17.2C287.2,236.3,287,235.7,286.6,235.2z"/>
</g>
</svg>
